# xmcd
#
# Track frame offsets:
#	150
#	16813
#	38234
#	59960
#	86963
#	107445
#	122722
#	137406
#	149670
#	169688
#	187270
#	209949
#
# Disc length: 3012 seconds
#
# Revision: 2
# Processed by: cddbd v1.5.2PL0 Copyright (c) Steve Scherf et al.
# Submitted via: EasyCDDAExtractor 12.0.4.1
#
DISCID=bd0bc20c
DTITLE=various artist - best of bakery
DYEAR=2004
DGENRE=Pranks
TTITLE0=ลมหนาว
TTITLE1=ก้อนหินละเมอ
TTITLE2=ห่างไกลเหลือเกิน
TTITLE3=รักเธอทั้งหมดของหัวใจ
TTITLE4=จะเก็บเธออยู่ในใจเสมอ
TTITLE5=โปรดเถอะ
TTITLE6=คนไม่พิเศษ
TTITLE7=ไปพัก
TTITLE8=อยากหลับตา
TTITLE9=อยากจะรู้
TTITLE10=home
TTITLE11=วันที่สวยงาม
EXTD=
EXTT0=
EXTT1=
EXTT2=
EXTT3=
EXTT4=
EXTT5=
EXTT6=
EXTT7=
EXTT8=
EXTT9=
EXTT10=
EXTT11=
PLAYORDER=
